<mxfile host="app.diagrams.net" agent="Mozilla/5.0 (Windows NT 10.0; Win64; x64) AppleWebKit/537.36 (KHTML, like Gecko) Chrome/136.0.0.0 Safari/537.36" version="26.2.14">
  <diagram name="第 1 页" id="W3irVbQLALy-WOoZ64xm">
    <mxGraphModel dx="1199" dy="671" grid="1" gridSize="10" guides="1" tooltips="1" connect="1" arrows="1" fold="1" page="1" pageScale="1" pageWidth="827" pageHeight="1169" math="0" shadow="0">
      <root>
        <mxCell id="0" />
        <mxCell id="1" parent="0" />
        <mxCell id="Ztly56zjpwg2mX6uoHLC-1" value="" style="rounded=0;orthogonalLoop=1;jettySize=auto;html=1;endArrow=none;startFill=0;" edge="1" parent="1" source="Ztly56zjpwg2mX6uoHLC-3" target="Ztly56zjpwg2mX6uoHLC-4">
          <mxGeometry relative="1" as="geometry" />
        </mxCell>
        <mxCell id="Ztly56zjpwg2mX6uoHLC-2" value="" style="edgeStyle=none;rounded=0;orthogonalLoop=1;jettySize=auto;html=1;endArrow=none;startFill=0;" edge="1" parent="1" source="Ztly56zjpwg2mX6uoHLC-3" target="Ztly56zjpwg2mX6uoHLC-6">
          <mxGeometry relative="1" as="geometry" />
        </mxCell>
        <mxCell id="Ztly56zjpwg2mX6uoHLC-3" value="&lt;font style=&quot;color: rgb(0, 0, 0); font-size: 18px;&quot;&gt;A&lt;/font&gt;" style="ellipse;whiteSpace=wrap;html=1;aspect=fixed;fillColor=#66B2FF;" vertex="1" parent="1">
          <mxGeometry x="110" y="140" width="40" height="40" as="geometry" />
        </mxCell>
        <mxCell id="Ztly56zjpwg2mX6uoHLC-4" value="&lt;font style=&quot;color: rgb(0, 0, 0); font-size: 18px;&quot;&gt;B&lt;/font&gt;" style="ellipse;whiteSpace=wrap;html=1;aspect=fixed;fillColor=#66B2FF;" vertex="1" parent="1">
          <mxGeometry x="220" y="140" width="40" height="40" as="geometry" />
        </mxCell>
        <mxCell id="Ztly56zjpwg2mX6uoHLC-5" value="" style="edgeStyle=none;rounded=0;orthogonalLoop=1;jettySize=auto;html=1;endArrow=none;startFill=0;" edge="1" parent="1" source="Ztly56zjpwg2mX6uoHLC-6" target="Ztly56zjpwg2mX6uoHLC-8">
          <mxGeometry relative="1" as="geometry" />
        </mxCell>
        <mxCell id="Ztly56zjpwg2mX6uoHLC-6" value="&lt;font style=&quot;color: rgb(0, 0, 0); font-size: 18px;&quot;&gt;D&lt;/font&gt;" style="ellipse;whiteSpace=wrap;html=1;aspect=fixed;fillColor=#66B2FF;" vertex="1" parent="1">
          <mxGeometry x="110" y="260" width="40" height="40" as="geometry" />
        </mxCell>
        <mxCell id="Ztly56zjpwg2mX6uoHLC-7" style="rounded=0;orthogonalLoop=1;jettySize=auto;html=1;entryX=0.5;entryY=1;entryDx=0;entryDy=0;endArrow=none;startFill=0;" edge="1" parent="1" source="Ztly56zjpwg2mX6uoHLC-8" target="Ztly56zjpwg2mX6uoHLC-11">
          <mxGeometry relative="1" as="geometry" />
        </mxCell>
        <mxCell id="Ztly56zjpwg2mX6uoHLC-8" value="&lt;font style=&quot;color: rgb(0, 0, 0); font-size: 18px;&quot;&gt;C&lt;/font&gt;" style="ellipse;whiteSpace=wrap;html=1;aspect=fixed;fillColor=#66B2FF;" vertex="1" parent="1">
          <mxGeometry x="220" y="260" width="40" height="40" as="geometry" />
        </mxCell>
        <mxCell id="Ztly56zjpwg2mX6uoHLC-9" value="&lt;font style=&quot;font-size: 18px;&quot;&gt;连通图&lt;/font&gt;" style="text;html=1;align=center;verticalAlign=middle;whiteSpace=wrap;rounded=0;" vertex="1" parent="1">
          <mxGeometry x="150" y="90" width="130" height="30" as="geometry" />
        </mxCell>
        <mxCell id="Ztly56zjpwg2mX6uoHLC-10" style="rounded=0;orthogonalLoop=1;jettySize=auto;html=1;exitX=0.5;exitY=0;exitDx=0;exitDy=0;entryX=1;entryY=0.5;entryDx=0;entryDy=0;endArrow=none;startFill=0;" edge="1" parent="1" source="Ztly56zjpwg2mX6uoHLC-11" target="Ztly56zjpwg2mX6uoHLC-4">
          <mxGeometry relative="1" as="geometry" />
        </mxCell>
        <mxCell id="Ztly56zjpwg2mX6uoHLC-11" value="&lt;span style=&quot;font-size: 18px;&quot;&gt;E&lt;/span&gt;" style="ellipse;whiteSpace=wrap;html=1;aspect=fixed;fillColor=#66B2FF;" vertex="1" parent="1">
          <mxGeometry x="340" y="200" width="40" height="40" as="geometry" />
        </mxCell>
        <mxCell id="Ztly56zjpwg2mX6uoHLC-12" value="对于连通图，从某个顶点出发，可以到达其余任意顶点。&lt;div&gt;完全图一定是连通图。&lt;/div&gt;" style="text;html=1;align=left;verticalAlign=middle;whiteSpace=wrap;rounded=0;fontSize=12;" vertex="1" parent="1">
          <mxGeometry x="120" y="330" width="280" height="30" as="geometry" />
        </mxCell>
      </root>
    </mxGraphModel>
  </diagram>
</mxfile>
